<svg width="306" height="74" viewBox="0 0 306 74" fill="none" xmlns="http://www.w3.org/2000/svg">
<g clip-path="url(#clip0_798_148)">
<path opacity="0.8" d="M233.015 0L270.274 37.0508L233.138 74L222.019 62.9173L247.812 37.2542L221.631 11.2047L233.015 0Z" fill="#02CAE3"/>
<path opacity="0.5" d="M160.358 0L197.596 37.0508L160.46 74L149.342 62.9173L175.134 37.2542L148.974 11.2047L160.358 0Z" fill="#02CAE3"/>
<path d="M268.762 0L306 37.0508L268.864 74L257.746 62.9173L283.539 37.2542L257.378 11.2047L268.762 0Z" fill="#02CAE3"/>
<path opacity="0.7" d="M196.083 0L233.322 37.0508L196.206 74L185.067 62.9173L210.88 37.2542L184.699 11.2047L196.083 0Z" fill="#02CAE3"/>
<path opacity="0.35" d="M124.019 0L161.257 37.0508L124.141 74L113.003 62.9173L138.816 37.2542L112.635 11.2047L124.019 0Z" fill="#02CAE3"/>
<path opacity="0.25" d="M88.2932 0L125.532 37.0508L88.3954 74L77.2771 62.9173L103.09 37.2542L76.9092 11.2047L88.2932 0Z" fill="#02CAE3"/>
<path opacity="0.15" d="M52.5667 0L89.805 37.0508L52.6689 74L41.5505 62.9173L67.3435 37.2542L41.1826 11.2047L52.5667 0Z" fill="#02CAE3"/>
<path opacity="0.05" d="M11.3841 0L48.6224 37.0508L11.4862 74L0.367887 62.9173L26.1813 37.2542L0 11.2047L11.3841 0Z" fill="#02CAE3"/>
</g>
<defs>
<clipPath id="clip0_798_148">
<rect width="306" height="74" fill="white"/>
</clipPath>
</defs>
</svg>
