<svg width="318" height="77" viewBox="0 0 318 77" fill="none" xmlns="http://www.w3.org/2000/svg">
<g clip-path="url(#clip0_798_168)">
<path d="M279.301 0L318 38.5529L279.407 77L267.853 65.468L294.657 38.7645L267.471 11.659L279.301 0Z" fill="#E893FE"/>
<path opacity="0.8" d="M242.153 0L280.873 38.5529L242.28 77L230.726 65.468L257.53 38.7645L230.322 11.659L242.153 0Z" fill="#E893FE"/>
<path opacity="0.7" d="M203.773 0L242.472 38.5529L203.9 77L192.325 65.468L219.15 38.7645L191.942 11.659L203.773 0Z" fill="#E893FE"/>
<path opacity="0.5" d="M166.646 0L205.345 38.5529L166.752 77L155.198 65.468L182.002 38.7645L154.815 11.659L166.646 0Z" fill="#E893FE"/>
<path opacity="0.35" d="M128.882 0L167.581 38.5529L129.01 77L117.434 65.468L144.26 38.7645L117.052 11.659L128.882 0Z" fill="#E893FE"/>
<path opacity="0.25" d="M91.7553 0L130.454 38.5529L91.8615 77L80.3071 65.468L107.133 38.7645L79.9248 11.659L91.7553 0Z" fill="#E893FE"/>
<path opacity="0.15" d="M54.6283 0L93.327 38.5529L54.7345 77L43.1802 65.468L69.9846 38.7645L42.7979 11.659L54.6283 0Z" fill="#E893FE"/>
<path opacity="0.05" d="M11.8305 0L50.5291 38.5529L11.9367 77L0.382314 65.468L27.208 38.7645L0 11.659L11.8305 0Z" fill="#E893FE"/>
</g>
<defs>
<clipPath id="clip0_798_168">
<rect width="318" height="77" fill="white"/>
</clipPath>
</defs>
</svg>
