<svg width="306" height="74" viewBox="0 0 306 74" fill="none" xmlns="http://www.w3.org/2000/svg">
<g clip-path="url(#clip0_798_148)">
<path opacity="0.8" d="M72.9851 0L35.7263 37.0508L72.8625 74L83.9808 62.9173L58.1879 37.2542L84.3691 11.2047L72.9851 0Z" fill="#02CAE3"/>
<path opacity="0.5" d="M145.642 0L108.404 37.0508L145.54 74L156.658 62.9173L130.866 37.2542L157.026 11.2047L145.642 0Z" fill="#02CAE3"/>
<path d="M37.238 0L-0.000293643 37.0508L37.1358 74L48.2542 62.9173L22.4612 37.2542L48.6221 11.2047L37.238 0Z" fill="#02CAE3"/>
<path opacity="0.7" d="M109.917 0L72.6784 37.0508L109.794 74L120.933 62.9173L95.1195 37.2542L121.301 11.2047L109.917 0Z" fill="#02CAE3"/>
<path opacity="0.35" d="M181.981 0L144.743 37.0508L181.859 74L192.997 62.9173L167.184 37.2542L193.365 11.2047L181.981 0Z" fill="#02CAE3"/>
<path opacity="0.25" d="M217.707 0L180.468 37.0508L217.605 74L228.723 62.9173L202.91 37.2542L229.091 11.2047L217.707 0Z" fill="#02CAE3"/>
<path opacity="0.15" d="M253.433 0L216.195 37.0508L253.331 74L264.449 62.9173L238.657 37.2542L264.817 11.2047L253.433 0Z" fill="#02CAE3"/>
<path opacity="0.05" d="M294.616 0L257.378 37.0508L294.514 74L305.632 62.9173L279.819 37.2542L306 11.2047L294.616 0Z" fill="#02CAE3"/>
</g>
<defs>
<clipPath id="clip0_798_148">
<rect width="306" height="74" fill="white" transform="matrix(-1 0 0 1 306 0)"/>
</clipPath>
</defs>
</svg>
