<svg width="318" height="77" viewBox="0 0 318 77" fill="none" xmlns="http://www.w3.org/2000/svg">
<g clip-path="url(#clip0_798_168)">
<path d="M38.6988 0L0.000172659 38.5529L38.5926 77L50.147 65.468L23.3426 38.7645L50.5293 11.659L38.6988 0Z" fill="#E893FE"/>
<path opacity="0.8" d="M75.8473 0L37.1274 38.5529L75.7198 77L87.2742 65.468L60.4698 38.7645L87.6777 11.659L75.8473 0Z" fill="#E893FE"/>
<path opacity="0.7" d="M114.227 0L75.5285 38.5529L114.1 77L125.675 65.468L98.8496 38.7645L126.058 11.659L114.227 0Z" fill="#E893FE"/>
<path opacity="0.5" d="M151.354 0L112.655 38.5529L151.248 77L162.802 65.468L135.998 38.7645L163.185 11.659L151.354 0Z" fill="#E893FE"/>
<path opacity="0.35" d="M189.118 0L150.419 38.5529L188.99 77L200.566 65.468L173.74 38.7645L200.948 11.659L189.118 0Z" fill="#E893FE"/>
<path opacity="0.25" d="M226.245 0L187.546 38.5529L226.139 77L237.693 65.468L210.867 38.7645L238.075 11.659L226.245 0Z" fill="#E893FE"/>
<path opacity="0.15" d="M263.372 0L224.673 38.5529L263.265 77L274.82 65.468L248.015 38.7645L275.202 11.659L263.372 0Z" fill="#E893FE"/>
<path opacity="0.05" d="M306.17 0L267.471 38.5529L306.063 77L317.618 65.468L290.792 38.7645L318 11.659L306.17 0Z" fill="#E893FE"/>
</g>
<defs>
<clipPath id="clip0_798_168">
<rect width="318" height="77" fill="white" transform="matrix(-1 0 0 1 318 0)"/>
</clipPath>
</defs>
</svg>
